<svg id="Layer_1" data-name="Layer 1" xmlns="http://www.w3.org/2000/svg" viewBox="0 0 93.56 91.08"><defs><style>.cls-1{fill:#20409a;stroke:#20409a;stroke-miterlimit:10;}</style></defs><path class="cls-1" d="M33.34,45.77A14.2,14.2,0,1,0,47.54,60,14.2,14.2,0,0,0,33.34,45.77Zm0,27.25a13.06,13.06,0,1,1,13-13.12V60a13.07,13.07,0,0,1-13,13Zm0-31.91A18.86,18.86,0,1,0,52.2,60,18.85,18.85,0,0,0,33.34,41.11Zm0,36.57A17.72,17.72,0,1,1,51.05,60v0A17.74,17.74,0,0,1,33.34,77.68Zm.57-17.74,0-6.16a6.88,6.88,0,0,1,2.38.74.57.57,0,0,0,.51-1,8,8,0,0,0-2.9-.86V50.18a.58.58,0,0,0-.57-.57h0a.58.58,0,0,0-.57.57h0v2.45a4.47,4.47,0,0,0-2.2.84,3.7,3.7,0,0,0-1.45,3.64c.3,1.63,1.65,2.94,3.71,3.63v6.16a6.88,6.88,0,0,1-2.38-.74.58.58,0,0,0-.77.25h0a.55.55,0,0,0,.25.75h0a8.19,8.19,0,0,0,2.9.87v1.69a.56.56,0,0,0,.56.56h0a.56.56,0,0,0,.57-.55V68.05a4.48,4.48,0,0,0,2.2-.85,3.7,3.7,0,0,0,1.45-3.64c-.3-1.63-1.65-2.93-3.71-3.63Zm-3.73-3a2.57,2.57,0,0,1,1-2.51,3.26,3.26,0,0,1,1.52-.61l.08,5.72a3.79,3.79,0,0,1-2.59-2.63Zm5.3,9.38a3.45,3.45,0,0,1-1.51.61V61.18a3.81,3.81,0,0,1,2.58,2.63,2.57,2.57,0,0,1-1,2.51ZM93.06,75a1.7,1.7,0,0,0-1.69-1.71H74.78a1.7,1.7,0,0,0-.76.18,1.7,1.7,0,0,0,.18-.76V69.55a1.66,1.66,0,0,0-.42-1.14,1.76,1.76,0,0,0,.44-1.15V64.17a1.72,1.72,0,0,0-1.71-1.71H65.89c-1.46-16.19-9-29.68-20-35.68l.56-.21a2.27,2.27,0,0,0,1.45-2v-3A2.13,2.13,0,0,0,47,19.88a3,3,0,0,0-1.73-.53c.85-3.3,4.38-5.65,7.51-7.74,2.71-1.8,5-3.36,5.08-5.27,0-1-.65-2-2.07-3-3-1.76-5.45-2.22-7.26-1.37A7.2,7.2,0,0,0,47,3,5.85,5.85,0,0,1,44.3,4.49a5.5,5.5,0,0,1-2.14,0,7.7,7.7,0,0,1-4-2.1A6.32,6.32,0,0,0,34,.45h0c-2.32,0-4.26,1.22-6,2.29s-3.13,2-4.69,1.75A5,5,0,0,1,20.4,2.7,6.43,6.43,0,0,0,16.57.46c-1.84-.25-3.82.71-5.89,2.88a3.12,3.12,0,0,0-.86,2.34c.18,1.76,2.14,3.25,4.42,5,2.82,2.14,6.29,4.79,7.14,8.62a3.07,3.07,0,0,0-1.66.52,2.18,2.18,0,0,0-.94,1.79v2.94a2.27,2.27,0,0,0,1.46,2l.5.2C8.43,33.51.5,49.66.5,68.41.5,88,18,90.5,33.33,90.5c9.19,0,15.88-1,20.94-3.13v1.42A1.72,1.72,0,0,0,56,90.5H72.52a1.67,1.67,0,0,0,1.14-.45,1.68,1.68,0,0,0,1.15.45H91.34a1.72,1.72,0,0,0,1.72-1.71v-3.1a1.67,1.67,0,0,0-.45-1.14,1.67,1.67,0,0,0,.45-1.14v-3.1a1.67,1.67,0,0,0-.45-1.14A1.67,1.67,0,0,0,93.06,78V75Zm-18.28-.6H91.35a.56.56,0,0,1,.57.55V78a.56.56,0,0,1-.55.57H74.78A.58.58,0,0,1,74.2,78h0V74.93a.58.58,0,0,1,.57-.57Zm17.1,6v3.09a.56.56,0,0,1-.55.57H74.78a.58.58,0,0,1-.58-.56h0V80.36a.58.58,0,0,1,.57-.57H91.35a.55.55,0,0,1,.57.52ZM73.1,69.55v3.1a.56.56,0,0,1-.55.57H56a.58.58,0,0,1-.58-.56h0v-3.1A.58.58,0,0,1,56,69H72.53A.58.58,0,0,1,73.1,69.55ZM55.42,78V74.93a.58.58,0,0,1,.57-.57H72.53a.56.56,0,0,1,.57.55V78a.56.56,0,0,1-.55.57H56a.58.58,0,0,1-.58-.56Zm0,5.38V80.29a.58.58,0,0,1,.57-.57H72.53a.56.56,0,0,1,.57.55v3.11a.56.56,0,0,1-.55.57H56a.57.57,0,0,1-.58-.55ZM73.1,64.18v3.09a.56.56,0,0,1-.55.57H56a.58.58,0,0,1-.58-.56h0V64.18A.58.58,0,0,1,56,63.6H72.53a.58.58,0,0,1,.57.57ZM15,9.83c-2.06-1.57-3.84-2.92-4-4.19a1.93,1.93,0,0,1,.57-1.46C13.32,2.32,15,1.46,16.43,1.67A5.26,5.26,0,0,1,19.6,3.58,6,6,0,0,0,23.18,5.7c2,.27,3.67-.79,5.46-1.92S32,1.67,34,1.67h0c1.45,0,2.37.77,3.44,1.67A8.81,8.81,0,0,0,42,5.69a6.68,6.68,0,0,0,2.56-.05A7.08,7.08,0,0,0,47.7,3.9,5.58,5.58,0,0,1,49.05,3c1.44-.69,3.53-.24,6.14,1.29,1,.74,1.56,1.43,1.55,2.07,0,1.31-2.23,2.78-4.56,4.33-3.29,2.19-7.35,4.9-8.09,8.9a34.5,34.5,0,0,1-7.69,1.33,16.81,16.81,0,0,1,2.27-6.52.55.55,0,0,0-.18-.77h0a.58.58,0,0,0-.79.19A18.11,18.11,0,0,0,35.24,21H33.39c-.78,0-1.54,0-2.29-.06a12.79,12.79,0,0,0-.73-4.11,13.27,13.27,0,0,0-3-4.76.58.58,0,0,0-.81,0,.57.57,0,0,0,0,.81h0a11.79,11.79,0,0,1,2.73,4.35A11.65,11.65,0,0,1,30,20.85a33.25,33.25,0,0,1-7.34-1.31C21.84,15.07,18,12.17,15,9.83Zm5,14.71V21.61a1,1,0,0,1,.46-.81,1.9,1.9,0,0,1,1.06-.33,2.13,2.13,0,0,1,.44.07.49.49,0,0,0,.17,0,38.11,38.11,0,0,0,11.28,1.58,38.29,38.29,0,0,0,11.31-1.56,1.85,1.85,0,0,1,1.66.23,1,1,0,0,1,.46.81v2.94a1.14,1.14,0,0,1-.77,1,33.75,33.75,0,0,1-12.66,2.12,33.43,33.43,0,0,1-12.6-2.14,1.14,1.14,0,0,1-.77-1Zm13.38,64.8c-15.68,0-31.7-2.48-31.7-20.94,0-18.79,8.08-34.9,20.59-41.12A38.23,38.23,0,0,0,33.39,28.8a38,38,0,0,0,11.12-1.51c11,5.54,18.75,19,20.24,35.17H56a1.72,1.72,0,0,0-1.71,1.71h0v3.09a1.67,1.67,0,0,0,.49,1.14,1.71,1.71,0,0,0-.44,1.14v3.1a1.71,1.71,0,0,0,.44,1.14,1.71,1.71,0,0,0-.44,1.14V78a1.71,1.71,0,0,0,.44,1.14,1.71,1.71,0,0,0-.44,1.14v3.1a1.71,1.71,0,0,0,.44,1.14,1.71,1.71,0,0,0-.44,1.14v.43c-5,2.2-11.62,3.23-20.94,3.23Zm39.18,0H56a.58.58,0,0,1-.57-.57v-3.1A.58.58,0,0,1,56,85.1H72.53a.58.58,0,0,1,.58.57v3.1a.58.58,0,0,1-.58.58Zm19.4-.57a.59.59,0,0,1-.57.57H74.78a.58.58,0,0,1-.57-.57v-3.1a.58.58,0,0,1,.57-.57H91.36a.59.59,0,0,1,.57.57Z" transform="translate(0 0.08)"/></svg>