<svg id="Layer_1" data-name="Layer 1" xmlns="http://www.w3.org/2000/svg" viewBox="0 0 114.85 106.31"><defs><style>.cls-1{fill-rule:evenodd;}</style></defs><path d="M106.88,40.38h-.07c-.65-.18-1.29-.38-1.94-.58a.24.24,0,0,1-.17-.14.3.3,0,0,1,0-.23l1-2.8a.29.29,0,0,1,.33-.18l2.32.47a.3.3,0,0,1,.23.26l.15,2.07a.31.31,0,0,1-.15.27l-1.55.84a.32.32,0,0,1-.14,0Zm1.14-3L106.14,37l-.82,2.3,1.53.45,1.29-.69Z" transform="translate(0.43 -17.34)"/><path d="M110.62,43.23l3.51-4.36L110.86,38l-7,3.8Z" transform="translate(0.43 -17.34)"/><path d="M110.62,43.51h-.06L103.78,42a.29.29,0,0,1-.22-.24.28.28,0,0,1,.15-.29l7-3.8a.25.25,0,0,1,.22,0l3.27.91a.3.3,0,0,1,.19.19.27.27,0,0,1-.05.26l-3.51,4.36a.28.28,0,0,1-.22.11Zm.27-5.26-6.24,3.38,5.86,1.28L113.64,39Z" transform="translate(0.43 -17.34)"/><path d="M106.24,45.45l4.31,4.61,2.14-.27-3-4.59Z" transform="translate(0.43 -17.34)"/><path d="M110.55,50.35a.28.28,0,0,1-.21-.1L106,45.64a.28.28,0,0,1-.06-.3.3.3,0,0,1,.25-.18l3.45-.24a.27.27,0,0,1,.26.13l3,4.58a.28.28,0,0,1,0,.28.29.29,0,0,1-.22.16l-2.14.27Zm-1-4.85-2.69.19,3.81,4.07,1.54-.2Z" transform="translate(0.43 -17.34)"/><path d="M92.88,27.67l3.94,1.19-.48,7.91c-1.91-.64-3.84-1.31-5.77-2-.4-.15-.8-.27-1.2-.38Z" transform="translate(0.43 -17.34)"/><path d="M96.34,37.05h-.09c-2-.67-3.94-1.34-5.78-2-.37-.14-.76-.26-1.18-.38a.26.26,0,0,1-.18-.16.25.25,0,0,1,0-.24l3.51-6.72A.28.28,0,0,1,93,27.4l4,1.19a.29.29,0,0,1,.2.29l-.49,7.9a.27.27,0,0,1-.12.22.33.33,0,0,1-.16,0ZM93,28l-3.24,6.2c.31.09.6.19.88.29,1.73.62,3.55,1.25,5.42,1.88l.44-7.32Z" transform="translate(0.43 -17.34)"/><path d="M91.89,53.68a.5.5,0,0,0,.13,0c.6,0,1.15-1,1.22-2.19s-.37-2.27-1-2.3l2.49-.06,4.3,4.92a11.77,11.77,0,0,1-7.17-.4Z" transform="translate(0.43 -17.34)"/><path d="M95.88,54.74a10.66,10.66,0,0,1-4.1-.8.28.28,0,0,1-.17-.26h0a.3.3,0,0,1,.14-.24.33.33,0,0,1,.29,0,.45.45,0,0,0,.28-.12A2.78,2.78,0,0,0,93,51.5c.06-1.12-.31-2-.7-2a.27.27,0,0,1-.26-.29.28.28,0,0,1,.27-.28l2.49-.06A.3.3,0,0,1,95,49l4.3,4.92a.29.29,0,0,1,.06.28.31.31,0,0,1-.21.19,15.2,15.2,0,0,1-3.24.37Zm-1.25-5.3-1.53,0a3.62,3.62,0,0,1,.42,2.05,3.34,3.34,0,0,1-.79,2.16,11.44,11.44,0,0,0,5.8.21Z" transform="translate(0.43 -17.34)"/><path d="M92.05,54h0c-.78-.05-1.3-1.17-1.22-2.61s.71-2.51,1.5-2.45,1.32,1.16,1.24,2.6S92.81,54,92.05,54Zm.19-4.49c-.38,0-.83.81-.89,1.91s.31,2,.69,2h0c.34,0,.83-.71.9-1.92s-.36-2-.7-2Z" transform="translate(0.43 -17.34)"/><path d="M103,48.38a14.79,14.79,0,0,1-1.75-.1l-1.13-.14a.28.28,0,0,1-.2-.13l-1.45-2.18L91.2,44.65l1.54,1.77a.27.27,0,0,1,0,.32.27.27,0,0,1-.3.14,74.24,74.24,0,0,1-8.4-2.14,12.48,12.48,0,0,1-4.9-2.86A6.35,6.35,0,0,1,77,37.75a1.63,1.63,0,0,1,.27-1A7.38,7.38,0,0,1,81.71,34a15.12,15.12,0,0,1,9,.49c5.63,2,11.11,3.8,16.3,5.33a.28.28,0,0,1,.2.24.26.26,0,0,1-.14.28l-2.37,1.28,5.86,1.28.91-1.13a.27.27,0,0,1,.22-.11.39.39,0,0,1,.22.11,2.68,2.68,0,0,1,.63,1.67,2.65,2.65,0,0,1-1,2.08c-.36.27-.72.51-1.07.74a.29.29,0,0,1-.39-.09l-.45-.68-2.69.19L108.08,47a.28.28,0,0,1-.11.46,13.79,13.79,0,0,1-5,.91Zm3-2.74a.28.28,0,0,1-.06-.3.3.3,0,0,1,.25-.18l3.45-.24a.28.28,0,0,1,.26.13l.38.58c.26-.17.53-.36.78-.55a2.1,2.1,0,0,0,.83-1.63,2.15,2.15,0,0,0-.29-1l-.79,1a.27.27,0,0,1-.28.09L103.78,42a.28.28,0,0,1-.22-.23.27.27,0,0,1,.15-.29l2.43-1.32c-5-1.49-10.27-3.22-15.67-5.15a14.55,14.55,0,0,0-8.61-.47,6.76,6.76,0,0,0-4.12,2.5,1,1,0,0,0-.18.64h0a5.79,5.79,0,0,0,2,3.76,12,12,0,0,0,4.69,2.72,69.6,69.6,0,0,0,7.51,2l-1.51-1.72a.3.3,0,0,1,0-.33.3.3,0,0,1,.3-.14l8.16,1.33a.33.33,0,0,1,.19.12l1.44,2.18,1,.13a13.63,13.63,0,0,0,6.08-.64Z" transform="translate(0.43 -17.34)"/><path d="M86.77,41.47c-4.44-2.24-7.24-4.47-6.45-6.69a10.56,10.56,0,0,1,1.47-.49,13.57,13.57,0,0,1,3.29-.44c-.26,1.78,1,3.1,3,4.24a2,2,0,0,1,1,1.7,1.87,1.87,0,0,1-.54,1.4,1.55,1.55,0,0,1-1.77.28Z" transform="translate(0.43 -17.34)"/><path d="M87.46,41.92a1.76,1.76,0,0,1-.81-.2c-3.31-1.67-7.6-4.22-6.59-7a.26.26,0,0,1,.15-.16A12,12,0,0,1,81.72,34a14.68,14.68,0,0,1,3.35-.45h0a.28.28,0,0,1,.21.1.28.28,0,0,1,.07.23c-.21,1.44.69,2.69,2.83,4a2.32,2.32,0,0,1,1.17,1.95,2.19,2.19,0,0,1-.62,1.6,1.78,1.78,0,0,1-1.28.53Zm-2.7-7.78a13.44,13.44,0,0,0-2.89.42,10.82,10.82,0,0,0-1.32.43c-.51,1.77,1.57,3.81,6.35,6.23A1.24,1.24,0,0,0,88.33,41a1.63,1.63,0,0,0,.46-1.21,1.73,1.73,0,0,0-.88-1.46c-1.42-.83-3.25-2.15-3.15-4.19Z" transform="translate(0.43 -17.34)"/><path d="M106,57h0l-5-.46a.3.3,0,0,1-.19-.1l-10.45-12a.31.31,0,0,1,0-.33.3.3,0,0,1,.3-.14l8.16,1.33a.3.3,0,0,1,.19.12l7.34,11.1a.27.27,0,0,1,0,.3A.27.27,0,0,1,106,57ZM91.19,44.64l9.87,11.29,4.34.4-7-10.5Z" transform="translate(0.43 -17.34)"/><path d="M93.32,40.8a.52.52,0,0,1,.33.64l-.28.85a.5.5,0,1,1-1-.31l.27-.85A.52.52,0,0,1,93.32,40.8Z" transform="translate(0.43 -17.34)"/><path d="M95.17,41.33a.5.5,0,0,1,.33.63l-.28.85a.5.5,0,1,1-1-.31l.27-.85A.5.5,0,0,1,95.17,41.33Z" transform="translate(0.43 -17.34)"/><path d="M97,41.85a.5.5,0,0,1,.33.63l-.28.85a.51.51,0,0,1-.64.33.51.51,0,0,1-.32-.64l.27-.85A.51.51,0,0,1,97,41.85Z" transform="translate(0.43 -17.34)"/><path d="M98.87,42.37a.5.5,0,0,1,.32.63l-.27.85a.51.51,0,0,1-.64.33.5.5,0,0,1-.32-.64l.27-.85A.51.51,0,0,1,98.87,42.37Z" transform="translate(0.43 -17.34)"/><path d="M100.72,42.89a.51.51,0,0,1,.32.64l-.27.84a.5.5,0,0,1-.64.33.51.51,0,0,1-.33-.64l.28-.84A.5.5,0,0,1,100.72,42.89Z" transform="translate(0.43 -17.34)"/><path d="M102.57,43.41a.51.51,0,0,1,.32.64l-.27.85a.51.51,0,0,1-1-.32l.28-.84A.5.5,0,0,1,102.57,43.41Z" transform="translate(0.43 -17.34)"/><path class="cls-1" d="M112.54,73.82a1.74,1.74,0,0,1-2.47.1l-3.9-3.58A50.59,50.59,0,0,1,37,120.09a1.75,1.75,0,0,1,1.29-3.25A47.09,47.09,0,0,0,102.65,70l-4.08,4.43A1.74,1.74,0,1,1,96,72l6.7-7.27a1.76,1.76,0,0,1,2.46-.11h0l7.27,6.69a1.75,1.75,0,0,1,.11,2.47ZM5.66,80.49A1.75,1.75,0,0,0,9.12,80,47.12,47.12,0,0,1,69.49,28.07L64.24,31a1.74,1.74,0,0,0,1.7,3l8.62-4.83a1.76,1.76,0,0,0,.82-1,1.66,1.66,0,0,0-.14-1.37L70.4,18.23a1.74,1.74,0,1,0-3,1.71L70,24.56A50.61,50.61,0,0,0,5.66,80.49Zm11,11.77a3.42,3.42,0,1,1-3.42-3.42,3.43,3.43,0,0,1,3.42,3.42Zm-10.34,0a6.92,6.92,0,1,0,6.92-6.91,6.94,6.94,0,0,0-6.92,6.91ZM23.44,119H3.06v-3.58a10.19,10.19,0,0,1,20.38,0V119ZM13.25,101.71A13.69,13.69,0,0,0-.43,115.39v5.32a1.75,1.75,0,0,0,1.74,1.75H25.18a1.75,1.75,0,0,0,1.75-1.75v-5.32a13.7,13.7,0,0,0-13.68-13.68Zm17.94-41a27.41,27.41,0,0,0,0,24.67A48,48,0,0,1,40,82.25a71.92,71.92,0,0,1-.19-18.37,48.78,48.78,0,0,1-8.66-3.13Zm12.66-12.4a54.62,54.62,0,0,0-3.49,12A44.22,44.22,0,0,1,33,57.73a27.6,27.6,0,0,1,10.88-9.38Zm18.93-1.76a46.61,46.61,0,0,1,4.88,14.95,67,67,0,0,1-23.89-.36,46.36,46.36,0,0,1,4.82-14.59,27.53,27.53,0,0,1,14.19,0Zm16,11.8a47.73,47.73,0,0,1-7.74,2.47,54.33,54.33,0,0,0-3.57-12.51,27.66,27.66,0,0,1,11.31,10Zm1.69,26.32a27.31,27.31,0,0,0,0-23.24,51.27,51.27,0,0,1-9,2.85,72,72,0,0,1-.18,17.49,51.38,51.38,0,0,1,9.13,2.9ZM66.59,98.25A27.65,27.65,0,0,0,78.83,87.79a48.35,48.35,0,0,0-8-2.53,49.91,49.91,0,0,1-4.24,13Zm-23.74-26a67.17,67.17,0,0,0,.62,9.18,71,71,0,0,1,24.47-.32A68.23,68.23,0,0,0,68.14,65a70.66,70.66,0,0,1-24.87-.33,68.2,68.2,0,0,0-.42,7.63Zm6.88,27.57a27.6,27.6,0,0,0,11.91,0,42.66,42.66,0,0,0,5.74-15.27,66.91,66.91,0,0,0-23.32.35,42.18,42.18,0,0,0,5.67,14.92ZM33,88.45a27.69,27.69,0,0,0,11.81,9.8,49.44,49.44,0,0,1-4.15-12.53A43.89,43.89,0,0,0,33,88.45ZM48.2,103.09l.11,0a30.67,30.67,0,0,0,14.75,0l.11,0A31.06,31.06,0,0,0,82.77,88l.18-.34a30.89,30.89,0,0,0,0-29.13l-.18-.34A31.07,31.07,0,0,0,64.55,43.47l-.21-.07A31.07,31.07,0,0,0,47,43.4l-.21.07A31.06,31.06,0,0,0,29.06,57.38l-.18.31a30.91,30.91,0,0,0,0,30.8l.19.32A31.06,31.06,0,0,0,48.2,103.09Z" transform="translate(0.43 -17.34)"/></svg>