<svg id="Layer_1" data-name="Layer 1" xmlns="http://www.w3.org/2000/svg" viewBox="0 0 116.11 140.72"><defs><style>.cls-1{fill:#010101;}</style></defs><path class="cls-1" d="M126.49,76h-1.7V34.29a1.6,1.6,0,0,0-.49-1.15S112.75,22,112.73,21.93a1.85,1.85,0,0,0-1.12-.45h-3.29L105.58,6a1.61,1.61,0,0,0-1.85-1.3L38.59,16.14A1.61,1.61,0,0,0,37.3,18l1.06,6.06L18,31.47a1.6,1.6,0,0,0-.95,2.05L28.31,64.46A6.72,6.72,0,0,0,20.74,71V138.8a6.56,6.56,0,0,0,6.56,6.56h99.19a6.56,6.56,0,0,0,6.56-6.56V82.59A6.57,6.57,0,0,0,126.49,76ZM64.54,76c-2.3.19-4.32-2.21-5.89-3.55V24.68H110v10a1.6,1.6,0,0,0,1.6,1.6h10V76Zm54.79-43h-6.12V26.94Zm-16.62-25,2.36,13.39h-48a1.6,1.6,0,0,0-1.6,1.6V69.61c-1.75-1.48-4.31-4.34-6.65-4.8-.63-3.65-7.68-43.57-8.08-45.79l62-10.93ZM20.6,33.93l18.34-6.67,6.56,37.2H31.71ZM129.85,138.8a3.36,3.36,0,0,1-3.36,3.36H27.3a3.37,3.37,0,0,1-3.36-3.36V71a3.37,3.37,0,0,1,3.36-3.36c1.82,0,17,0,19.26,0a5,5,0,0,1,3.35,1.28l9.15,8.19a8.21,8.21,0,0,0,5.48,2.1s58.65,0,58.65,0,3.27,0,3.3,0a3.36,3.36,0,0,1,3.36,3.36V138.8Z" transform="translate(-16.95 -4.64)"/><path class="cls-1" d="M76.9,97.39H37.22A1.6,1.6,0,0,0,35.62,99v21.63a1.6,1.6,0,0,0,1.6,1.6H76.9a1.6,1.6,0,0,0,1.6-1.6V99A1.6,1.6,0,0,0,76.9,97.39ZM75.3,119H38.82V100.58H75.3Z" transform="translate(-16.95 -4.64)"/><path class="cls-1" d="M76.9,125.63H37.22a1.6,1.6,0,0,0,0,3.2H76.9A1.6,1.6,0,0,0,76.9,125.63Z" transform="translate(-16.95 -4.64)"/><path class="cls-1" d="M67.22,51h46.39a1.6,1.6,0,0,0,0-3.2H67.22A1.6,1.6,0,0,0,67.22,51Z" transform="translate(-16.95 -4.64)"/><path class="cls-1" d="M113.61,55.81H67.22a1.6,1.6,0,0,0,0,3.2h46.39A1.6,1.6,0,0,0,113.61,55.81Z" transform="translate(-16.95 -4.64)"/><path class="cls-1" d="M104,63.81H67.22a1.6,1.6,0,0,0,0,3.19H104A1.6,1.6,0,0,0,104,63.81Z" transform="translate(-16.95 -4.64)"/><path class="cls-1" d="M67.22,41.42H84.83a1.6,1.6,0,0,0,0-3.2H67.22A1.6,1.6,0,0,0,67.22,41.42Z" transform="translate(-16.95 -4.64)"/></svg>