<svg id="Layer_1" data-name="Layer 1" xmlns="http://www.w3.org/2000/svg" viewBox="0 0 130.38 132.12"><defs><style>.cls-1{fill:#010101;}</style></defs><path class="cls-1" d="M31.83,79.27c0,25.14,20.65,45.59,46,45.59s46-20.46,46-45.59-20.65-45.6-46-45.6S31.83,54.13,31.83,79.27ZM104.54,43c.14.56.19,1.31-.63,1.52-1.3.34,0,1.94,0,2.23a1.83,1.83,0,0,1-1,1.68c-1,.48-.35-1.8-1.33-2.66s-.13,2.74-.36,4.1-1.83-1.06-2.78-1.53-.51-1.45.48-3.14-.07-3-.62-2.38-1.78.83-1.72,3.67-.49,2.17,2.23,3.25.46.86.06,1.58a3.38,3.38,0,0,1-2.09,1.44c-.78.2-.32-1.12-1-1s.82,1.32.13,1.86-.42-.85-1.36-1.29-1.93-.4-2.75-1.08a4.33,4.33,0,0,0-2.16-.89c-.88-.25-2.2,1-2.23,2s-1.36,4.78-2.42,5.08-.35,1-.7,1.73.52,2.08.83,1.14.83-.52,1.55.34.63,1.43,1,1.54.17-.28.68-1.23,1-.91.12-2.39.45-2.35,1.11-3.64.86.59.06,1.74.49,1.2,2.26,1.83,1.2.63-.58.92,0,.66-.34,1.46-.72.31-.68,1.66-2.55.71-3.61,1.17-.46-1.26-.52-2.35-.34-.13-1,1.35S83.25,64,83.5,65.25s-.08.53-2.14,1.29.13,1,.53,2.07S80.81,70,79.78,70a2.12,2.12,0,0,0-1.08,3.39c1.19,1.46.66,1.57,0,2.94s0,1.21-2.1,3.15-.8.83-1,3.58a6.73,6.73,0,0,0,1,4.37c.5,1.21.92,1.18,1.53,1.63a2.43,2.43,0,0,0,2.2.84c1.51,0,1.65.74,2.78-.27s1.77-.11,2.4.23,2-.59,1.37.84A3.16,3.16,0,0,0,88,94.45c1,.66.31,2,.51,2.66s-.45,1.69-.71,2.2.31,2.34,1,3.75-.11,2.77,1.58,4.69,2.51-1,4.15-1.8.23-1.61,1.78-2.86.53-1.27.43-2.18,2.39-1.74,2.94-3.32-1.38-3,0-4.34a64.5,64.5,0,0,0,4.6-5.76c.32-.46.72-2.54.14-1.81s-1.9.59-2.94.47-.57-.89.12-.64,4.15-2.31,5.63-3.32.31-1.36-.25-2.46a1.14,1.14,0,0,0-1.64-.48,6.23,6.23,0,0,1-1.39-.52c-1.12-.51-.84-2.91-.72-1.77s3.69.77,3.44,1.23,1.68.43,3.25.37,2.1,1.81,2.5,2.47.83.11,1.68.93,1.21,5.45,1.67,5.53,1.53-4.11,2-4,2.18-2,2.66-3.34c.37-1,2-.84,2.78-.71-.11,24.68-20.41,44.72-45.34,44.72S32.53,104,32.53,79.26c0-.78,0-1.56.06-2.35.82.6,2.65,2.09,3.09,3.58.59,1.93,1.83,3.68,3.4,4.17s4.78,1.49,5.38,3,3.92,3.52,4.44,2.69,0-1.14.68-1.11,1,3.07-.11,3.63-.51,1.29,0,1.74-1,1.22-.51,1.82,2.1,1,2.14,2.13,3.78,2.06,4.25,3.24,1.36,1.64,1.68,4.69,1.35,1.78,1.32,4.45,1.28,1.08,1.42,2.91,1,.22,1.16.89-1,.65-.49,1.14,1.31.29,1.72,1.35a7.68,7.68,0,0,0,1.52,2.14s2.45,1.38,2.73.8,0-.52-.74-.92a5.93,5.93,0,0,1-1.48-2s-.31-1.57-1.07-1.83.21-.25.12-1-.65-1.07-.68-1.5.62-.22.86-.43-.61-.86-.27-1,1.47.08.92-1.38.2-.65.74-1.29-.22-.66.21-1.52.59-2.12.16-2.29.92-2.13,1.87-1.93.8-.29.74-1.13-.35-3.4.55-4.17,1.28-2.14.25-2.69-2-1.74-2.85-1.44-1.06.29-1.69-.06A5.48,5.48,0,0,0,62,93c-.32,0-.85-3-2.23-3a2.8,2.8,0,0,1-2.6-1.52c-.15-.57-.35-1.45-.69-1a1.73,1.73,0,0,1-1.75.46c-.65-.19-1.62-1-2.37-.75s-1.47,1.86-2.7,1.5-1.37.59-2.4-.23.07-2.55-.83-2.89-1.75.71-1.83-.11,1.06-2.13.92-2.79-1.24.24-1.81,1-4.12,0-3.06-2.08S40.2,78,41.79,78.2s2.55.37,3.05-.27.79-.68,1.36-.16.86,2.46,1.76,2.72.91-.66.5-1.55-.37-2.23.18-2.46,2.23-1.41,2.44-2.69S53,70.86,53.7,71.06s.38-1.62,1.09-1.68,1.34.89,2.09.15,2.32-.63,1.38-1.35S56.57,67,57,66.8s-.85-.69.72-.74.72.12,1.84-.58,1.19-.25.59.5-1.85,1.69-.8,1.71.52.2.89.61.45-.18.68-.1.54.44.63-.16.69-1.3,0-1.8-.21-3.21-.64-3.59-1.23-.77-1.14-1.79.49-2.45.06-2.35-1,2-1.45,1.74-.59-1.61,0-1.91-.64-.44-.84-.89a1.1,1.1,0,0,0-1.23-.75c-.7.12-.87.69-.9,1.49s-.78.65-1.06,1.05.48.64.3,1.19a3.7,3.7,0,0,1-1.56,2c-.72.26-.37,2.21-1.21,2.13s.58-1.9-.09-2.59-3.49-1.93-2.52-3.2,2-1.91,2.79-3,2.31-2.55,2.8-2.24-1.2,1.23-.92,1.72.44-.26,1,0,1.68.56,1.26-.14-1.09-2-.21-2,1.14-.26,1.51-1.4.4-1.24.87-1.39.75-.14,1.14,1.21S59.31,53,58.68,54s-1.11-.39-1.46.43.21,1.09.86,1.31.43.16.88,1.1,1.86,1.25,1.92-.15.09-3.2.41-2.52.54.29.65.78.83-.35.86-1.06a3,3,0,0,0-.37-1.51c-.26-.67-.08-.69.49-.78s.2-2-.17-2-1.26.17-1-.47.26-3-1.41-2.51.12-1-1.14-.23a4.31,4.31,0,0,0-2.06,2.23c-.28.77-.17.58,0,1.29a1.23,1.23,0,0,1-.83,1.6c-.85.29.38-.68-.16-1.06s-1.57-.79-.77-1.12.59-1.59,1.39-2.23,2.18-1.11,2-1.51-1.56,0-1.69-.64-.93.41-1.41,1.59-.77,2.12-1.46,2.48a3.66,3.66,0,0,0-1.69,1.83c-.25.74-1.39,1.14-1.51.2s-.32-1.88.68-1.65,1.07.74,1.41-.34,2.35-2.82,2.29-3.72-2.1,1.93-2.64,1.2.08-1,0-1.35.88-1.15.6-1.41-.31-1.22-1.09-1.56a45.57,45.57,0,0,1,52.34.74Z" transform="translate(-9.81 -8.94)"/><path class="cls-1" d="M16,74.18h0a.34.34,0,0,0,.33-.31c.14-1.54.34-3.11.59-4.63a.33.33,0,1,0-.66-.1c-.26,1.53-.46,3.12-.6,4.67a.33.33,0,0,0,.3.37Z" transform="translate(-9.81 -8.94)"/><path class="cls-1" d="M17.53,64.94h.07a.32.32,0,0,0,.33-.26c.36-1.5.8-3,1.29-4.49a.34.34,0,0,0-.22-.43.33.33,0,0,0-.43.22c-.49,1.49-.94,3-1.3,4.53a.35.35,0,0,0,.26.42Z" transform="translate(-9.81 -8.94)"/><path class="cls-1" d="M61.5,20.3a.15.15,0,0,0,.09,0c1.49-.4,3-.75,4.55-1a.32.32,0,0,0,.26-.39.32.32,0,0,0-.38-.26c-1.54.29-3.09.65-4.6,1.06a.33.33,0,0,0-.23.42.3.3,0,0,0,.31.23Z" transform="translate(-9.81 -8.94)"/><path class="cls-1" d="M52.66,23.42a.58.58,0,0,0,.14,0c1.42-.62,2.88-1.2,4.34-1.72a.34.34,0,0,0,.2-.43.33.33,0,0,0-.43-.2c-1.48.52-3,1.1-4.39,1.73a.34.34,0,0,0-.16.45.35.35,0,0,0,.3.2Z" transform="translate(-9.81 -8.94)"/><path class="cls-1" d="M44.41,27.83a.49.49,0,0,0,.19,0c1.3-.83,2.65-1.61,4-2.35a.34.34,0,1,0-.32-.6c-1.38.74-2.75,1.54-4.07,2.38a.35.35,0,0,0-.11.47.34.34,0,0,0,.29.15Z" transform="translate(-9.81 -8.94)"/><path class="cls-1" d="M20.41,56l.13,0a.33.33,0,0,0,.31-.2c.59-1.43,1.26-2.84,2-4.23a.33.33,0,1,0-.58-.3c-.72,1.4-1.38,2.83-2,4.27a.33.33,0,0,0,.16.43Z" transform="translate(-9.81 -8.94)"/><path class="cls-1" d="M30.32,40.11a.42.42,0,0,0,.26-.12c1-1.19,2.06-2.34,3.15-3.45a.35.35,0,0,0,0-.47.37.37,0,0,0-.48,0c-1.11,1.12-2.17,2.29-3.18,3.47a.33.33,0,0,0,.05.48A.24.24,0,0,0,30.32,40.11Z" transform="translate(-9.81 -8.94)"/><path class="cls-1" d="M24.64,47.66a.35.35,0,0,0,.17,0,.38.38,0,0,0,.29-.15q1.23-2,2.58-3.87a.33.33,0,0,0-.53-.39c-.93,1.28-1.8,2.6-2.62,3.92a.34.34,0,0,0,.11.45Z" transform="translate(-9.81 -8.94)"/><path class="cls-1" d="M36.89,33.44a.35.35,0,0,0,.22-.08q1.76-1.51,3.63-2.93A.34.34,0,0,0,40.8,30a.32.32,0,0,0-.46-.06c-1.25.94-2.49,1.94-3.68,3a.34.34,0,0,0,0,.47A.36.36,0,0,0,36.89,33.44Z" transform="translate(-9.81 -8.94)"/><path class="cls-1" d="M72.94,140.2c-1.55-.13-3.1-.31-4.64-.54a.33.33,0,1,0-.11.66c1.37.21,4.21.54,4.72.54a.35.35,0,0,0,.34-.31.33.33,0,0,0-.31-.35Z" transform="translate(-9.81 -8.94)"/><path class="cls-1" d="M54.83,136c-1.44-.57-2.87-1.22-4.26-1.89a.33.33,0,1,0-.29.59c.54.27,4.14,1.94,4.43,1.94a.33.33,0,0,0,.31-.21.34.34,0,0,0-.19-.43Z" transform="translate(-9.81 -8.94)"/><path class="cls-1" d="M91.49,138.89c-1.5.34-3,.61-4.58.85a.33.33,0,0,0-.27.38.34.34,0,0,0,.38.28c1.55-.23,3.11-.51,4.64-.86a.34.34,0,0,0-.17-.65Z" transform="translate(-9.81 -8.94)"/><path class="cls-1" d="M46.45,131.88c-1.33-.78-2.66-1.63-3.93-2.5a.33.33,0,0,0-.46.07.34.34,0,0,0,.07.46c1.3.9,2.63,1.76,4,2.54a.33.33,0,1,0,.33-.57Z" transform="translate(-9.81 -8.94)"/><path class="cls-1" d="M82.25,140.23c-1.42.09-2.92.15-4.65.15a.34.34,0,0,0,0,.68c1.57,0,3.07-.05,4.7-.16a.32.32,0,0,0,.31-.35.34.34,0,0,0-.36-.32Z" transform="translate(-9.81 -8.94)"/><path class="cls-1" d="M63.72,138.78c-1.51-.35-3-.76-4.51-1.23a.32.32,0,0,0-.41.22.32.32,0,0,0,.21.41c1,.31,4.32,1.25,4.63,1.25a.33.33,0,0,0,.32-.26.31.31,0,0,0-.24-.39Z" transform="translate(-9.81 -8.94)"/><path class="cls-1" d="M30.56,118.51a.34.34,0,1,0-.52.43c.47.57,1,1.13,1.47,1.67a.34.34,0,1,0,.49-.46C31.51,119.63,31,119.07,30.56,118.51Z" transform="translate(-9.81 -8.94)"/><path class="cls-1" d="M35.28,123.5a.34.34,0,1,0-.46.5c1.13,1.07,2.33,2.12,3.55,3.1a.33.33,0,0,0,.47,0,.33.33,0,0,0,0-.47C37.58,125.59,36.4,124.56,35.28,123.5Z" transform="translate(-9.81 -8.94)"/><path class="cls-1" d="M136.07,58.3a.23.23,0,0,0,.12,0,.33.33,0,0,0,.2-.43c-.53-1.46-1.15-2.92-1.81-4.35a.35.35,0,0,0-.45-.17.34.34,0,0,0-.16.45c.64,1.41,1.26,2.86,1.79,4.3a.3.3,0,0,0,.31.22Z" transform="translate(-9.81 -8.94)"/><path class="cls-1" d="M136.62,99a.33.33,0,0,0-.43.2c-.51,1.46-1.07,2.92-1.7,4.33a.33.33,0,1,0,.61.26c.63-1.43,1.21-2.9,1.72-4.39a.31.31,0,0,0-.2-.4Z" transform="translate(-9.81 -8.94)"/><path class="cls-1" d="M132.9,107.63a.32.32,0,0,0-.46.13c-.72,1.37-1.52,2.72-2.35,4a.34.34,0,0,0,.11.46.32.32,0,0,0,.46-.11c.84-1.32,1.64-2.69,2.38-4.07a.32.32,0,0,0-.14-.44Z" transform="translate(-9.81 -8.94)"/><path class="cls-1" d="M127.46,115.63l-.11.14a.34.34,0,0,0,.27.54c.23,0,.3-.22.36-.28a.34.34,0,0,0-.06-.47A.32.32,0,0,0,127.46,115.63Z" transform="translate(-9.81 -8.94)"/><path class="cls-1" d="M132.29,49.75a.34.34,0,0,0,.12-.46c-.77-1.37-1.6-2.72-2.46-4a.32.32,0,0,0-.46-.09.33.33,0,0,0-.09.46c.86,1.29,1.68,2.63,2.43,4a.33.33,0,0,0,.46.14Z" transform="translate(-9.81 -8.94)"/><path class="cls-1" d="M138.72,67.29a.34.34,0,0,0,.26-.4c-.31-1.54-.69-3.07-1.12-4.58a.34.34,0,0,0-.42-.23.33.33,0,0,0-.23.41c.43,1.5.8,3,1.11,4.52a.33.33,0,0,0,.4.28Z" transform="translate(-9.81 -8.94)"/><path class="cls-1" d="M139.88,80.61h0a.34.34,0,0,0-.34.33c-.05,1.55-.14,3.12-.31,4.66a.32.32,0,0,0,.29.36.33.33,0,0,0,.37-.29c.17-1.55.26-3.13.31-4.7a.32.32,0,0,0-.31-.36Z" transform="translate(-9.81 -8.94)"/><path class="cls-1" d="M139.82,76.59h0a.36.36,0,0,0,.32-.35c-.08-1.57-.22-3.16-.42-4.69a.34.34,0,0,0-.36-.29.34.34,0,0,0-.3.36c.2,1.54.33,3.09.4,4.65a.35.35,0,0,0,.34.32Z" transform="translate(-9.81 -8.94)"/><path class="cls-1" d="M126.92,42a.33.33,0,0,0,.26-.53c-1-1.23-2-2.45-3-3.6a.33.33,0,0,0-.48,0,.34.34,0,0,0,0,.48C126.65,41.59,126.55,42,126.92,42Z" transform="translate(-9.81 -8.94)"/><path class="cls-1" d="M138.57,90.21c-.27,1.52-.61,3.06-1,4.55a.33.33,0,0,0,.23.41.34.34,0,0,0,.42-.24c.39-1.52.73-3.06,1-4.6a.34.34,0,0,0-.67-.12Z" transform="translate(-9.81 -8.94)"/><path class="cls-1" d="M69.84,18.65h0c1.54-.2,3.11-.34,4.64-.41a.34.34,0,1,0,0-.68c-1.56.08-3.15.23-4.68.43a.35.35,0,0,0-.3.37.33.33,0,0,0,.33.29Z" transform="translate(-9.81 -8.94)"/><path class="cls-1" d="M79.2,18.16c1.55,0,3.12.12,4.65.28h0a.34.34,0,0,0,.33-.31.34.34,0,0,0-.3-.37c-1.56-.15-3.14-.24-4.71-.28a.34.34,0,0,0-.34.33.34.34,0,0,0,.33.35Z" transform="translate(-9.81 -8.94)"/><path class="cls-1" d="M63.41,44.26c.91.29,1.29-.41,2.2-1.21s.58-2.11,1.77-2.28,1.49-1.33,1.56-.61,0,1-1.07,1.5-1.57.5-1.77,1.4-.69,1.34,0,2.2,1.74,0,1.6,1.6-1.32,2.63-1.2,3.58,1.14,1.05.65,1.68-1.77.83-1.77,2.07-.65,2.83.15,3.55,0,3.8,1.77,1.74a2.08,2.08,0,0,1,1.08-1.71c1-.41.06-1.46.84-1.86s1.52-.83,3.27-1.76,3.56-.73,3.68-2.39-1.09-2.64,0-3,.87-2.17,1.38-3.16S78,43,78.93,41.88s1.7-2.38.65-2.2-1.14.09-.61-1-.71-1.42-1.6-1.45a4.77,4.77,0,0,0-2.66,1.11c-.34.38-1.68.49-1.77.06s-1.86-.24-1.86-.37.12-1.15-2.14-.8-3.84.2-4.81,1.48-1.69,2.58-1,2.75-2,1.48-1,2.18.39.28,1.31.57Z" transform="translate(-9.81 -8.94)"/><path class="cls-1" d="M116.24,115.63a11.7,11.7,0,1,0,11.7,11.7A11.72,11.72,0,0,0,116.24,115.63Zm0,22.74a11,11,0,1,1,11-11A11,11,0,0,1,116.24,138.37Z" transform="translate(-9.81 -8.94)"/><path class="cls-1" d="M117.36,130.83l0-.41a5.13,5.13,0,0,0,1.69-.25,2.37,2.37,0,0,0,1.32-2.72,32.7,32.7,0,0,0-1.35-4.93c.58-.4,1.29-1.18,1-1.82a1.4,1.4,0,0,0-1.17-.59c.2-.51.2-1.33-.32-1.5a2.56,2.56,0,0,0-1.6.6c-.21-.64-1.2-.46-1.84-.29-2.86.76-1.48,9.59-.92,10.45l.06.07.14,1.9a7.5,7.5,0,0,0-2.62,4.27.32.32,0,0,0,.17.36,10.54,10.54,0,0,0,4.81,1.14,10.7,10.7,0,0,0,4.81-1.14.33.33,0,0,0,.17-.42c-.07-.13-1.47-4-4.29-4.72Zm-.73,1.22a2,2,0,0,1-1.13.08.65.65,0,0,1-.53-.43l-.13-1.74a5.89,5.89,0,0,0,1.77.43A3.33,3.33,0,0,1,116.63,132.05Zm2.49-3.72a1.52,1.52,0,0,1-1.29.35c-.27,0-.17-.44.09-.38a1.06,1.06,0,0,0,.94-.26C119,127.87,119.3,128.16,119.12,128.33Zm.47-1.28c-1.13-.27-1.23-.57-2.16.11a1.28,1.28,0,0,1-1.13.37c-.52-.12-.73-2.15-.63-4,.23-.34,1.56-.23,2.69-.71.49,1.46,1,3.31,1.23,4.21Zm-7.19,8.47a6.83,6.83,0,0,1,2-3.42,1.56,1.56,0,0,0,1.6.73c1,0,1.31-.35,1.35-1.29,2,.65,3.14,3.15,3.49,4a10.28,10.28,0,0,1-8.48,0Z" transform="translate(-9.81 -8.94)"/><path class="cls-1" d="M118,126a.2.2,0,1,0,0,.4.47.47,0,0,0,.35-.71,1.86,1.86,0,0,1-.32-1,.2.2,0,0,0-.4,0C117.61,125.58,118.12,125.78,118,126Z" transform="translate(-9.81 -8.94)"/><path class="cls-1" d="M116.62,124.64c0,.37.47.32.42,0S116.58,124.26,116.62,124.64Z" transform="translate(-9.81 -8.94)"/><path class="cls-1" d="M118.47,124.63c.29,0,.23-.65-.08-.62S118.16,124.67,118.47,124.63Z" transform="translate(-9.81 -8.94)"/><path class="cls-1" d="M22,93.93A11.39,11.39,0,1,0,32.54,106.1,11.37,11.37,0,0,0,22,93.93Zm-3.74,10.63c.62,0,1.22-.18,1.83-.21,1.52-.09,2.91.78,4.34,1.29.56,3.34-2.53,7.49-5.05,5.2A5.56,5.56,0,0,1,17.79,107a4.59,4.59,0,0,1,.47-2.42Zm1.18,7.15A2.74,2.74,0,0,0,22,112l-.07.89a9.73,9.73,0,0,1-2.52-.17Zm-.59,1.45a6.68,6.68,0,0,0,3.52.23A6.21,6.21,0,0,1,25,115.28a10.65,10.65,0,0,1-9-.63,5.91,5.91,0,0,1,2.85-1.49Zm13-7.14a10.68,10.68,0,0,1-6.21,9,6.92,6.92,0,0,0-3.09-2.26l.08-1.17a6.25,6.25,0,0,0,2.44-4.27,2.59,2.59,0,0,0,1.35-.28,1,1,0,0,0,.34-1.1,1.58,1.58,0,0,0,.74-.34.78.78,0,0,0,.15-1.12c-.27-.31-.81-.42-1-.77s.32-6.57-8.42-5c-.86.16-1.19,1.17-1.59,1.86a4.17,4.17,0,0,0-.72,2.19,2.28,2.28,0,0,0,.11.41c-.37,1.46-.28,2.87,1,3.64a6.32,6.32,0,0,0,1.7,4.4l-.09,1.28a6.93,6.93,0,0,0-3.32,1.79A10.7,10.7,0,1,1,31.88,106Z" transform="translate(-9.81 -8.94)"/><path class="cls-1" d="M22.66,107c.21,0,.41-.22.43-.51s-.14-.54-.36-.55-.41.21-.43.51A.46.46,0,0,0,22.66,107Z" transform="translate(-9.81 -8.94)"/><path class="cls-1" d="M19.58,106.73c.22,0,.42-.21.43-.51s-.13-.53-.35-.55-.41.22-.43.51A.46.46,0,0,0,19.58,106.73Z" transform="translate(-9.81 -8.94)"/><path class="cls-1" d="M19.75,109.61a.35.35,0,0,0,.05.48,1.83,1.83,0,0,0,2.24,0,.33.33,0,0,0,.07-.48.35.35,0,0,0-.48-.06,1.18,1.18,0,0,1-1.42,0A.32.32,0,0,0,19.75,109.61Z" transform="translate(-9.81 -8.94)"/><path class="cls-1" d="M21.37,109a.33.33,0,0,0-.14-.46c-.14-.08,0-.51.08-.65a2.88,2.88,0,0,0,0-1.43.34.34,0,0,0-.4-.26.35.35,0,0,0-.26.4c.19.85-.15,1.25-.18,1.72C20.48,109,21.15,109.37,21.37,109Z" transform="translate(-9.81 -8.94)"/><path class="cls-1" d="M93.37,30.06a11.39,11.39,0,1,0-5.44-10.53,11.39,11.39,0,0,0,5.44,10.53Zm2.86-10.19a12.43,12.43,0,0,0,1.93-.25c1.56-.1,3,.88,4.42,1.42a5.91,5.91,0,0,1-2.26,5.09.27.27,0,0,0-.13.07c-2.92,1.68-5.25-3.27-4-6.33ZM100.05,27l-.06.89a10.67,10.67,0,0,1-2.52-.19l.06-.93A2.81,2.81,0,0,0,100.05,27ZM97,28.22a6.89,6.89,0,0,0,3.52.23,6.09,6.09,0,0,1,2.66,1.89,10.69,10.69,0,0,1-9-.63A6,6,0,0,1,97,28.22ZM88.6,19.58a10.72,10.72,0,0,1,10.67-10c.26,0,.51,0,.77,0a10.71,10.71,0,0,1,3.72,20.41,6.83,6.83,0,0,0-3.09-2.26l.08-1.17a6.32,6.32,0,0,0,2.44-4.27,2.57,2.57,0,0,0,1.35-.28,1,1,0,0,0,.39-.78c1-.26,1.21-1.11.83-1.58s-.82-.47-1-.85c-.46-.88,1.12-1.52.94-2.41a1.13,1.13,0,0,0-.89-.76c-.68-.17-1.89,0-2.25-.83s.7-1.52.57-2.33a1.26,1.26,0,0,0-.86-.94,3.3,3.3,0,0,0-1.37-.11,7.78,7.78,0,0,0-6.16,4,3.89,3.89,0,0,0-.65,2.81c-.35,1.43-.2,2.78,1.07,3.54a6.41,6.41,0,0,0,1.7,4.42l-.09,1.26a7,7,0,0,0-3.32,1.8,10.79,10.79,0,0,1-4.83-9.77Z" transform="translate(-9.81 -8.94)"/><path class="cls-1" d="M100.75,22c.21,0,.41-.22.43-.51s-.14-.54-.36-.56-.41.22-.43.51S100.53,22,100.75,22Z" transform="translate(-9.81 -8.94)"/><path class="cls-1" d="M97.67,21.79a.48.48,0,0,0,.43-.51c0-.29-.14-.54-.35-.55s-.42.21-.43.51A.48.48,0,0,0,97.67,21.79Z" transform="translate(-9.81 -8.94)"/><path class="cls-1" d="M97.86,24.67a.33.33,0,0,0,0,.47,1.83,1.83,0,0,0,2.25,0,.32.32,0,0,0,.06-.47.33.33,0,0,0-.48-.07,1.14,1.14,0,0,1-1.41,0A.31.31,0,0,0,97.86,24.67Z" transform="translate(-9.81 -8.94)"/><path class="cls-1" d="M99.47,24a.33.33,0,0,0-.14-.46.17.17,0,0,1,0-.17,4,4,0,0,0,.17-1.89.34.34,0,0,0-.67.14c.19.87-.15,1.21-.18,1.72C98.58,24.07,99.24,24.44,99.47,24Z" transform="translate(-9.81 -8.94)"/></svg>