<svg id="Layer_1" data-name="Layer 1" xmlns="http://www.w3.org/2000/svg" viewBox="0 0 113.98 140.99"><defs><style>.cls-1{fill:#010101;}</style></defs><path class="cls-1" d="M64.74,36.57a1.45,1.45,0,0,1,1.44-1.44h48.68a1.44,1.44,0,1,1,0,2.87H66.2a1.46,1.46,0,0,1-1.46-1.43Zm1.46,19.3H90.54a1.44,1.44,0,0,0,0-2.87H66.2a1.45,1.45,0,0,0-1.44,1.44A1.41,1.41,0,0,0,66.2,55.87ZM77.43,20.11h26.19a1.44,1.44,0,1,0,0-2.87H77.43a1.44,1.44,0,1,0,0,2.87Zm-11.23,9h48.68a1.44,1.44,0,0,0,0-2.87H66.2a1.45,1.45,0,0,0-1.44,1.44A1.43,1.43,0,0,0,66.2,29.06Zm0,17.88h48.68a1.44,1.44,0,0,0,0-2.87H66.2a1.44,1.44,0,0,0-1.44,1.43A1.43,1.43,0,0,0,66.2,46.94ZM23.06,33.29a9.53,9.53,0,1,1,9.52,9.53A9.54,9.54,0,0,1,23.06,33.29Zm2.87,0a6.64,6.64,0,1,0,6.64-6.63A6.65,6.65,0,0,0,25.93,33.29Zm106,76.16V112a4.33,4.33,0,0,1-4.33,4.33h-25l-.19,0a8.8,8.8,0,0,1-14.76,0l-.18,0h-25l-.19,0a8.8,8.8,0,0,1-14.76,0l-.18,0h-25A4.34,4.34,0,0,1,18,112v-2.54a16.85,16.85,0,0,1,32.71-5.69,8.82,8.82,0,0,1,8.46,0,16.83,16.83,0,0,1,31.7,0,8.8,8.8,0,0,1,8.45,0A16.82,16.82,0,0,1,132,109.45Zm-85.65,4a8.77,8.77,0,0,1,2-7.76,14,14,0,0,0-27.42,3.74V112a1.48,1.48,0,0,0,1.47,1.46Zm14.53-2a5.95,5.95,0,1,0-6,6A6,6,0,0,0,60.86,111.52Zm25.62,2a8.77,8.77,0,0,1,2-7.76,14,14,0,0,0-26.89,0,8.89,8.89,0,0,1,2.19,5.81,9.78,9.78,0,0,1-.21,2Zm14.53-2a5.95,5.95,0,1,0-6,6A6,6,0,0,0,101,111.52Zm28.1-2.07a14,14,0,0,0-27.42-3.74,8.84,8.84,0,0,1,2.2,5.81,9.11,9.11,0,0,1-.22,2h24a1.48,1.48,0,0,0,1.46-1.47v-2.55ZM124,82.38a8.82,8.82,0,1,1-8.81-8.81A8.83,8.83,0,0,1,124,82.38Zm-2.88,0a5.95,5.95,0,1,0-5.94,6A6,6,0,0,0,121.07,82.38ZM75,73.57a8.82,8.82,0,1,1-8.81,8.81A8.82,8.82,0,0,1,75,73.57Zm0,2.87a5.95,5.95,0,1,0,6,5.94A6,6,0,0,0,75,76.44Zm36.93,62.17v2.54a4.34,4.34,0,0,1-4.34,4.34h-25a4.34,4.34,0,0,1-4.34-4.34v-2.54a16.85,16.85,0,1,1,33.7,0Zm-2.88,0a14,14,0,0,0-27.94,0v2.54a1.48,1.48,0,0,0,1.47,1.47h25a1.48,1.48,0,0,0,1.47-1.47v-2.54Zm-37.27,0v2.54a4.34,4.34,0,0,1-4.34,4.34h-25a4.34,4.34,0,0,1-4.33-4.34v-2.54a16.85,16.85,0,1,1,33.69,0Zm-2.87,0a14,14,0,0,0-27.94,0v2.54a1.47,1.47,0,0,0,1.46,1.47h25a1.47,1.47,0,0,0,1.47-1.47ZM20,78.5V56.85A12.52,12.52,0,0,1,41,47.56l5.82,5.29,4.33-4.34V11.7a7.21,7.21,0,0,1,7.19-7.2h64.45A7.21,7.21,0,0,1,130,11.7V61.42a7.2,7.2,0,0,1-7.19,7.19H58.31a7.2,7.2,0,0,1-6.62-4.4l-.65.65a5.74,5.74,0,0,1-7.93.19l-.79-.72,0,13.32a8.86,8.86,0,1,1-2.87-2.81l0-13.12-2.81-2.54a1.44,1.44,0,0,1,1.94-2.13l6.47,5.88a2.88,2.88,0,0,0,4-.09l9-9a2.86,2.86,0,0,0,.85-2,2.8,2.8,0,0,0-.85-2,2.86,2.86,0,0,0-2-.85,2.83,2.83,0,0,0-2,.85l-6.13,6.13a1.44,1.44,0,0,1-2,0L39,49.7a9.64,9.64,0,0,0-16.12,7.15V78.5a1.44,1.44,0,0,1-2.88,0Zm20.75,3.88a5.95,5.95,0,1,0-5.94,6A6,6,0,0,0,40.79,82.38ZM54,11.7V46.38A5.92,5.92,0,0,1,56,46a5.76,5.76,0,0,1,4.07,9.84l-6,6a4.32,4.32,0,0,0,4.27,3.88h64.45a4.33,4.33,0,0,0,4.32-4.32V11.7a4.33,4.33,0,0,0-4.32-4.33H58.31A4.33,4.33,0,0,0,54,11.7Z" transform="translate(-18.01 -4.5)"/></svg>