<svg id="Layer_1" data-name="Layer 1" xmlns="http://www.w3.org/2000/svg" viewBox="0 0 106.14 117.31"><defs><style>.cls-1{fill:#20409a;}</style></defs><path class="cls-1" d="M20.43,30.36a1.83,1.83,0,0,0,1.8,1.5,1.93,1.93,0,0,0,.34,0,1.83,1.83,0,0,0,1.52-2.09s0-.05,0-.07l-1.8-9.64h0v-.12a1.18,1.18,0,0,0-.07-.2s-.05-.1-.07-.14a1.62,1.62,0,0,0-.1-.18l-.11-.13-.17-.16L21.6,19l-.11-.08-.22-.12h-.08l-.27-.09h-.84l-9.6,2.06a1.83,1.83,0,1,0,.7,3.59l.1,0h0l5-1.11A48.77,48.77,0,0,0,13.9,69.69a7.3,7.3,0,0,1,4.61,1h0A45.12,45.12,0,0,1,19.46,25Z" transform="translate(0 0)"/><path class="cls-1" d="M30.08,10.83a1.83,1.83,0,0,0,2.54.5h0a44.75,44.75,0,0,1,55.56,4.41l-5-.35A1.83,1.83,0,1,0,82.91,19h0l8.91.63H92a2,2,0,0,0,.35,0h.11l.23-.07.12-.06.18-.1a.31.31,0,0,0,.11-.09.61.61,0,0,0,.16-.12l.09-.11a.86.86,0,0,0,.13-.14l.08-.13.1-.17v-.15l.06-.18V18h0a1.86,1.86,0,0,0,0-1.39l.4-7.73a1.83,1.83,0,1,0-3.66-.12l-.12,3.91A48.44,48.44,0,0,0,30.52,8.28,1.83,1.83,0,0,0,30.08,10.83Z" transform="translate(0 0)"/><path class="cls-1" d="M101.08,26.13a1.83,1.83,0,1,0-3.28,1.63h0a45.13,45.13,0,0,1-2.25,44l-.8-4.35a1.83,1.83,0,1,0-3.6.66h0l1.53,8.35h0v.28l.06.13.08.15.26.15a.64.64,0,0,0,.1.13l.11.11.11.1.13.09.12.08.16.07.12.06.19,0h.11a1.71,1.71,0,0,0,.32,0,1.82,1.82,0,0,0,.33,0H95l8.3-1.86a1.83,1.83,0,1,0-.7-3.59l-.1,0L99,73.15A48.81,48.81,0,0,0,101.08,26.13Z" transform="translate(0 0)"/><path class="cls-1" d="M56,79.25a4.34,4.34,0,0,0,.51,0,4.34,4.34,0,0,0,.51,0,2.4,2.4,0,0,0,.59-.13V76.91A4.29,4.29,0,0,0,60,75.39a4.21,4.21,0,0,0,.81-2.61,4.42,4.42,0,0,0-.25-1.65A3.29,3.29,0,0,0,59.85,70a3.86,3.86,0,0,0-1-.75,12.93,12.93,0,0,0-1.2-.54l-1-.4a3.37,3.37,0,0,1-.84-.44.91.91,0,0,1-.38-.81.8.8,0,0,1,.12-.48.79.79,0,0,1,.32-.28,1.08,1.08,0,0,1,.43-.13h.48a5.4,5.4,0,0,1,1.6.19,11.05,11.05,0,0,1,1.25.47,8.54,8.54,0,0,0,.77-2.67c-.5-.17-1-.32-1.42-.43a9.59,9.59,0,0,0-1.32-.24V61.88a2.94,2.94,0,0,0-.59-.12h-1a3.19,3.19,0,0,0-.6.12v1.69A4.22,4.22,0,0,0,53,64.84a4.3,4.3,0,0,0-.68,4,3.23,3.23,0,0,0,.58,1,3.34,3.34,0,0,0,.87.72,8.3,8.3,0,0,0,1.07.55l1,.41a5.58,5.58,0,0,1,1.08.57,1,1,0,0,1,.44.89,1,1,0,0,1-.5,1,2.82,2.82,0,0,1-1.45.31A6.35,6.35,0,0,1,54,74.1a11.5,11.5,0,0,1-1.59-.55c-.18.52-.32,1-.44,1.48a10.67,10.67,0,0,0-.26,1.37l.94.35c.29.1.58.18.87.25a9.07,9.07,0,0,0,.91.14,8.34,8.34,0,0,0,1,0v2A2.14,2.14,0,0,0,56,79.25Z" transform="translate(0 0)"/><path class="cls-1" d="M83,79.13a10.3,10.3,0,0,1,3.23-1.61,26.55,26.55,0,0,0,.47-5.11c0-6.6-4.18-14.66-12.44-24a4.56,4.56,0,0,0,.65-8.52A46.5,46.5,0,0,0,80.19,28a1.84,1.84,0,0,0-1.34-2.22,1.62,1.62,0,0,0-.44,0c-3.42,0-5.18,1.83-6.59,3.31-1.22,1.16-2.1,2.06-3.95,2.06s-2.73-.91-4-2.18c-1.41-1.48-3.17-3.31-6.59-3.31S52.11,27.47,50.69,29c-1.16,1.28-2,2.18-3.89,2.18s-2.72-.9-3.94-2.17c-1.42-1.48-3.18-3.31-6.59-3.31a1.81,1.81,0,0,0-1.84,1.78,1.73,1.73,0,0,0,0,.45A50.47,50.47,0,0,0,38.91,39.5a4.57,4.57,0,0,0-.39,8.81c-6.16,6.94-12.33,15.91-12.33,24.06v1.26l1-.56c.2-.11.4-.21.61-.3a12.58,12.58,0,0,1,2.06-.64c.22-8,7.54-17.33,13.42-23.58H69.46C78.33,58.13,83,66.26,83,72.37a21.86,21.86,0,0,1-1.25,7.47ZM40.21,31.5c1.41,1.47,3.17,3.31,6.59,3.31S52,33,53.39,31.5c1.21-1.27,2.09-2.19,3.94-2.19s2.73.92,4,2.19c1.41,1.47,3.17,3.31,6.59,3.31S73.1,33,74.51,31.5c.35-.37.67-.7,1-1a45.88,45.88,0,0,1-4.67,8.88H43.08a44,44,0,0,1-4.1-9.1A14.16,14.16,0,0,1,40.21,31.5ZM72.94,44.89h-33a.9.9,0,0,1-.89-.91h0a.89.89,0,0,1,.89-.89h33a.9.9,0,0,1,.89.91h0A.89.89,0,0,1,72.94,44.89Z" transform="translate(0 0)"/><path class="cls-1" d="M94.87,83.93a7,7,0,0,0-4.74-3.16,6.52,6.52,0,0,0-5,1.36l-16.39,10a10.8,10.8,0,0,1,.39,3.2,3.3,3.3,0,0,1-.09.94L87.08,85.18l.2-.14a3,3,0,0,1,2.31-.65,3.32,3.32,0,0,1,2.24,1.54,4.3,4.3,0,0,1-.8,5.4l-33.7,21.8-.16.12a1.31,1.31,0,0,1-1.26.25L29.85,101.71l-.32-.13c-1.55-.66-3.64-1.52-5.7-.57L20.46,85.28a2.14,2.14,0,0,0,.6-.21l9.69-5.59a2.61,2.61,0,0,1,1.84-.23L57.28,89.87l.2.07c2.13.64,4.35,2.83,4.25,5.08a4.5,4.5,0,0,1-1.65,3.39,3.41,3.41,0,0,1-2.7.71L42.08,93a1.83,1.83,0,1,0-1.36,3.4l15.42,6.15a1.58,1.58,0,0,0,.31.09,8,8,0,0,0,1.46.16,7.12,7.12,0,0,0,4.38-1.54,8.16,8.16,0,0,0,3.1-6.17c.18-4.09-3.28-7.62-6.75-8.71L33.89,75.82a1.4,1.4,0,0,0-.29-.09,6.23,6.23,0,0,0-4.37.41l-.21.11-9.34,5.39-1.12-5.22a4,4,0,0,0-1.84-2.61,3.56,3.56,0,0,0-2.81-.4L1.4,76.48A1.83,1.83,0,0,0,2.27,80h0L14.83,77a.32.32,0,0,1,.14.24l6.89,32.1a.46.46,0,0,1-.13.47L8.36,113.67a1.83,1.83,0,0,0,.93,3.54l.07,0h0l13.37-3.91a4,4,0,0,0,2.68-4.76l-.84-3.94a1.93,1.93,0,0,0,.7-.23c.59-.33,1.72.14,2.81.6l26.36,12,.13.06a5,5,0,0,0,4.8-.77L93.08,94.35l.16-.12A8,8,0,0,0,94.87,83.93Z" transform="translate(0 0)"/></svg>